<svg width="71" height="72" viewBox="0 0 71 72" fill="none" xmlns="http://www.w3.org/2000/svg">
<path d="M23.5215 71.0078L24.75 65.2988C23.5456 65.347 22.5579 65.0339 21.7871 64.3594C21.0404 63.709 20.4502 62.8418 20.0166 61.7578C19.583 60.6738 19.2819 59.4574 19.1133 58.1084C18.9688 56.7835 18.8965 55.4707 18.8965 54.1699V48.2803C18.8965 45.4137 18.1979 42.8844 16.8008 40.6924C15.4036 38.5003 13.2116 36.8262 10.2246 35.6699C13.1875 34.5137 15.3675 32.8275 16.7646 30.6113C18.1859 28.3952 18.8965 25.8538 18.8965 22.9873V17.0977C18.8965 15.7969 18.9206 14.484 18.9688 13.1592C19.041 11.8102 19.2578 10.5938 19.6191 9.50977C19.9805 8.42578 20.5586 7.55859 21.3535 6.9082C22.1484 6.23372 23.2806 5.92057 24.75 5.96875L23.5215 0.295898C21.1849 0.295898 19.1735 0.741536 17.4873 1.63281C15.8011 2.52409 14.4401 3.66829 13.4043 5.06543C12.1517 6.67936 11.2363 8.58236 10.6582 10.7744C10.0801 12.9424 9.79102 15.0501 9.79102 17.0977V22.9873C9.79102 26.2393 9.04427 28.5638 7.55078 29.9609C6.05729 31.3581 3.78092 32.0566 0.72168 32.0566V39.2832C3.78092 39.2832 6.05729 39.9818 7.55078 41.3789C9.04427 42.776 9.79102 45.0765 9.79102 48.2803V54.1699C9.79102 56.0729 10.0439 58.012 10.5498 59.9873C11.0798 61.9867 11.9229 63.8174 13.0791 65.4795C14.1631 67.0693 15.5723 68.3822 17.3066 69.418C19.0651 70.4779 21.1367 71.0078 23.5215 71.0078ZM45.9961 65.2988L47.2246 71.0078C49.6094 71.0078 51.6689 70.4899 53.4033 69.4541C55.1618 68.4424 56.583 67.1055 57.667 65.4434C58.751 63.8535 59.57 62.0469 60.124 60.0234C60.6781 58 60.9551 56.0488 60.9551 54.1699V48.2803C60.9551 47.1481 61.0394 46.1364 61.208 45.2451C61.4007 44.3298 61.6777 43.5348 62.0391 42.8604C62.7135 41.6077 63.7132 40.7044 65.0381 40.1504C66.363 39.5723 68.0251 39.2832 70.0244 39.2832V32.0566C68.2419 32.0566 66.7122 31.8278 65.4355 31.3701C64.1829 30.9124 63.2074 30.1898 62.5088 29.2021C61.9788 28.4795 61.5814 27.6003 61.3164 26.5645C61.0755 25.5286 60.9551 24.3363 60.9551 22.9873V17.0977C60.9551 15.2669 60.7262 13.376 60.2686 11.4248C59.835 9.44954 59.0882 7.66699 58.0283 6.07715C56.9202 4.31868 55.487 2.92155 53.7285 1.88574C51.9701 0.825846 49.8021 0.295898 47.2246 0.295898L45.9961 5.96875C47.4655 5.92057 48.5977 6.23372 49.3926 6.9082C50.1875 7.55859 50.7656 8.42578 51.127 9.50977C51.4883 10.5938 51.693 11.8102 51.7412 13.1592C51.8135 14.484 51.8496 15.7969 51.8496 17.0977V22.9873C51.8496 24.6494 52.0785 26.2272 52.5361 27.7207C52.9938 29.1901 53.7044 30.527 54.668 31.7314C55.3184 32.5505 56.0892 33.2972 56.9805 33.9717C57.8717 34.6462 58.8955 35.2243 60.0518 35.7061C58.6305 36.3083 57.402 37.043 56.3662 37.9102C55.3545 38.7533 54.5114 39.7168 53.8369 40.8008C53.1624 41.8848 52.6566 43.0531 52.3193 44.3057C52.0062 45.5583 51.8496 46.8831 51.8496 48.2803V54.1699C51.8496 55.4707 51.7653 56.7835 51.5967 58.1084C51.4281 59.4574 51.127 60.6738 50.6934 61.7578C50.2598 62.8418 49.6576 63.709 48.8867 64.3594C48.14 65.0339 47.1764 65.347 45.9961 65.2988Z" fill="#D60270"/>
</svg>
